<!--?xml version="1.0" encoding="UTF-8"?-->
<svg xmlns="http://www.w3.org/2000/svg" width="90" height="20" viewBox="0 0 90 20" fill="none"><path fill-rule="evenodd" clip-rule="evenodd" d="M42.6311 1.86216C42.6314 1.61586 42.6806 1.37206 42.7758 1.14483C42.8711 0.917613 43.0105 0.711479 43.186 0.53834C43.3616 0.365202 43.5697 0.228494 43.7985 0.136111C44.0273 0.0437278 44.2722 -0.0025007 44.519 0.00010427C44.7629 0.000379774 45.0044 0.0488902 45.2294 0.142836C45.4545 0.236782 45.6586 0.374305 45.8301 0.547446C46.0015 0.720587 46.1369 0.925913 46.2284 1.15157C46.3199 1.37723 46.3656 1.61875 46.363 1.86216C46.3562 2.34808 46.1597 2.81219 45.8154 3.15582C45.471 3.49945 45.0059 3.69551 44.519 3.70231C44.0263 3.70077 43.5536 3.50776 43.2012 3.16422C42.8487 2.82068 42.6443 2.35364 42.6311 1.86216ZM45.924 15.8823H43.1141V5.11965H45.924V5.13061H48.3606C49.107 5.13061 49.6119 4.62677 49.6119 3.83813V1.77892C49.6119 1.74406 49.6258 1.71063 49.6505 1.68598C49.6752 1.66133 49.7087 1.64748 49.7436 1.64748H52.1364C52.1714 1.64748 52.2048 1.66133 52.2295 1.68598C52.2542 1.71063 52.2681 1.74406 52.2681 1.77892V4.92907H54.9024C54.9373 4.92907 54.9708 4.94292 54.9955 4.96757C55.0202 4.99222 55.0341 5.02565 55.0341 5.06051V7.14163C55.0341 7.17649 55.0202 7.20993 54.9955 7.23458C54.9708 7.25923 54.9373 7.27307 54.9024 7.27307H52.2681V12.1801C52.2715 12.3592 52.3107 12.5359 52.3836 12.6996C52.4565 12.8633 52.5616 13.0108 52.6925 13.1333C52.8235 13.2559 52.9777 13.351 53.1461 13.413C53.3146 13.475 53.4937 13.5027 53.6731 13.4945C54.1212 13.4737 54.5578 13.346 54.9463 13.1221L56 15.0784C55.2737 15.6977 54.3427 16.0256 53.3877 15.9984C51.2803 15.9984 49.4582 14.5745 49.4582 12.362V7.27745H45.924V15.8823ZM36.7919 15.9942C39.5798 15.9942 41.9067 13.7159 41.9067 10.4059C41.9067 7.18537 39.6952 4.93923 36.993 4.82839C36.9542 4.82328 36.9149 4.81958 36.8753 4.81735H36.7919C36.7425 4.818 36.6932 4.81947 36.644 4.82175C36.1613 4.82277 35.6831 4.91896 35.237 5.10531C35.117 5.15546 34.9999 5.21184 34.8864 5.27414C34.8511 5.29154 34.8159 5.30942 34.781 5.32777C34.4954 5.47063 34.221 5.63466 33.96 5.81848C33.9571 5.82063 33.9542 5.82279 33.9512 5.82495V0.464696C33.9512 0.429836 33.9374 0.396406 33.9127 0.371756C33.888 0.347107 33.8545 0.333262 33.8195 0.333262H31.3389C31.304 0.333262 31.2705 0.347107 31.2458 0.371756C31.2211 0.396406 31.2072 0.429836 31.2072 0.464696V8.36908C30.8748 8.7266 30.5513 9.09149 30.2297 9.45419C30.0022 9.71078 29.7757 9.96628 29.5476 10.2173C29.2293 10.5788 28.8978 10.9139 28.5707 11.236C28.0802 11.7351 27.5462 12.1896 26.9748 12.5942C26.3633 13.0414 25.6562 13.3413 24.9091 13.4704C24.8023 13.4879 24.6946 13.4988 24.5864 13.5033H24.3889L24.3887 13.5077H24.154H24.1159C23.6666 13.4751 23.2295 13.3459 22.8347 13.1287C23.2153 13.3558 23.6457 13.4858 24.088 13.5077H24.031H23.985C23.6004 13.4655 23.2277 13.3494 22.8873 13.1659L22.8368 13.1418C22.8234 13.1357 22.81 13.1276 22.7969 13.1197C22.7865 13.1134 22.7763 13.1072 22.7666 13.1024C22.439 12.9082 22.1593 12.6432 21.9478 12.3269V12.3116L21.9324 12.2853C21.8185 12.109 21.7257 11.9201 21.6558 11.7223V11.7048C21.6061 11.5616 21.5666 11.4152 21.5373 11.2666C21.5055 11.049 21.49 10.8293 21.4912 10.6094C21.492 10.2849 21.5199 9.96105 21.5746 9.64116L21.5757 9.63401C22.749 10.4219 23.9754 11.2403 26.6302 11.2403C28.7815 11.2403 29.6947 9.34543 29.0098 7.75283C29.0038 7.7369 28.9965 7.7215 28.9878 7.70682C28.0615 5.7199 26.1297 4.81296 24.2154 4.81296C22.8673 4.80225 21.5612 5.28109 20.5406 6.16022C20.8253 6.32366 21.0802 6.5075 21.3225 6.70102C21.0835 6.51071 20.832 6.32995 20.5516 6.16897L20.5465 6.17342L20.5275 6.16241C19.825 5.75276 18.9337 5.47235 17.6166 5.47235L17.6058 5.47837C16.9941 5.46555 16.3858 5.57364 15.816 5.79649C15.2387 6.02225 14.7127 6.36121 14.2689 6.79333H13.9177L13.5225 5.58847H11.2834V14.7546L6.62076 8.00037L11.4063 0.552158H8.05644L4.17091 6.57645H2.94157V0.683591C2.94157 0.648731 2.92771 0.615301 2.90301 0.590652C2.87831 0.566002 2.8448 0.552158 2.80986 0.552158H0.131708C0.0967752 0.552158 0.063262 0.566002 0.038561 0.590652C0.01386 0.615301 0 0.648731 0 0.683591V15.7575C0 15.7923 0.01386 15.8257 0.038561 15.8504C0.063262 15.875 0.0967752 15.8889 0.131708 15.8889H2.80986C2.8448 15.8889 2.87831 15.875 2.90301 15.8504C2.92771 15.8257 2.94157 15.7923 2.94157 15.7575V9.42429H4.21481L8.68427 15.8867H12.0649L12.0634 15.8845H14.0713C14.1063 15.8845 14.1398 15.8707 14.1645 15.846C14.1892 15.8214 14.2031 15.7879 14.2031 15.7531V10.9994C14.2031 8.98398 15.8056 8.19533 17.3444 8.19533C17.3884 8.19533 17.4324 8.1929 17.4761 8.18868C18.0113 8.19159 18.5446 8.25554 19.0655 8.37935L19.0716 8.38086L19.0699 8.38592C18.8587 9.00963 18.7533 9.66413 18.7581 10.3225C18.7581 13.7399 21.3485 15.994 24.3142 15.994H24.5864L24.8279 15.9765C25.5341 15.9145 26.2211 15.7142 26.8497 15.3872C26.9775 15.3197 27.1019 15.2472 27.2227 15.1698C28.7292 14.3243 30.0138 12.9345 31.2072 11.5675V15.8825H33.3585L33.6746 14.8332H34.0039C34.3568 15.2165 34.7888 15.5188 35.2701 15.7192C35.7515 15.9197 36.2706 16.0135 36.7919 15.9942ZM35.5728 7.64137C34.591 7.97528 33.96 8.9527 33.96 10.4059C33.96 12.2241 34.9479 13.2997 36.3748 13.2997C37.7138 13.3041 39.0529 12.3402 39.0529 10.4059C39.0529 8.51964 37.7709 7.5562 36.4613 7.51555C36.4335 7.516 36.4054 7.51623 36.377 7.51623H36.2681C36.1483 7.52081 36.0319 7.53314 35.919 7.553C35.8018 7.57506 35.6862 7.60458 35.5728 7.64137ZM22.581 7.75772C22.9551 7.46976 23.4012 7.28995 23.8708 7.23802L23.8317 7.24415C23.8452 7.24237 23.8586 7.2407 23.8721 7.23912C23.69 7.26639 23.511 7.31077 23.3373 7.37165C23.2989 7.38491 23.2608 7.39911 23.2232 7.41423C22.9997 7.50403 22.7904 7.62623 22.6021 7.77706C23.4363 8.41667 24.4658 8.96206 26.3053 9.01902C26.3439 9.02092 26.3824 9.0133 26.4173 8.99681C26.4522 8.98032 26.4826 8.95547 26.5056 8.92449C26.5286 8.8935 26.5436 8.85734 26.5492 8.81918C26.5549 8.78102 26.551 8.74206 26.538 8.70576C26.1494 7.64767 25.3131 7.20954 24.3098 7.20954H24.0903C24.0588 7.20954 24.0281 7.21203 23.997 7.21538C24.0136 7.2151 24.0302 7.21534 24.0467 7.21611H23.9903L23.9539 7.22037C23.9346 7.22268 23.915 7.22503 23.8946 7.22706L23.8708 7.22926C23.3995 7.28245 22.9521 7.46438 22.5778 7.75502C22.5467 7.73087 22.5158 7.70657 22.4852 7.68215C22.5169 7.70747 22.5488 7.73267 22.581 7.75772ZM24.0467 7.21611H24.0793V7.2183L24.0619 7.21696L24.0467 7.21611ZM23.8721 7.23912L23.8796 7.23801H23.8818L23.8721 7.23912ZM23.9784 7.22707H24.0836C24.0485 7.22471 24.0134 7.22471 23.9784 7.22707Z" fill="#06090F"></path><path d="M66.1704 16.2158C65.5018 16.2158 64.9178 16.1079 64.4185 15.8921C63.9233 15.672 63.5298 15.3716 63.2378 14.9907C62.95 14.6056 62.7829 14.1655 62.7363 13.6704L62.73 13.6006H63.8726L63.8789 13.6704C63.9085 13.9751 64.0249 14.2396 64.228 14.4639C64.4354 14.6839 64.7104 14.8553 65.0532 14.978C65.4002 15.1007 65.7938 15.1621 66.2339 15.1621C66.6486 15.1621 67.0168 15.0965 67.3384 14.9653C67.6642 14.8299 67.9202 14.6437 68.1064 14.4067C68.2926 14.1698 68.3857 13.8968 68.3857 13.5879V13.5815C68.3857 13.2007 68.2461 12.8812 67.9668 12.623C67.6875 12.3607 67.2326 12.1597 66.6021 12.02L65.5864 11.7979C64.6681 11.5947 63.9995 11.2816 63.5806 10.8584C63.1659 10.431 62.9585 9.88509 62.9585 9.2207V9.21436C62.9627 8.70654 63.1003 8.25798 63.3711 7.86865C63.6462 7.47933 64.0249 7.17464 64.5073 6.95459C64.994 6.73454 65.5526 6.62451 66.1831 6.62451C66.7925 6.62451 67.332 6.73454 67.8018 6.95459C68.2715 7.17041 68.6439 7.4624 68.9189 7.83057C69.1982 8.19873 69.3527 8.61133 69.3823 9.06836L69.3887 9.15723H68.2461L68.2334 9.07471C68.1911 8.80387 68.0811 8.56478 67.9033 8.35742C67.7256 8.14583 67.4886 7.97868 67.1924 7.85596C66.8962 7.73324 66.5492 7.67399 66.1514 7.67822C65.7705 7.67822 65.4277 7.73747 65.123 7.85596C64.8184 7.97445 64.575 8.14583 64.3931 8.37012C64.2153 8.59017 64.1265 8.861 64.1265 9.18262V9.18896C64.1265 9.5529 64.2619 9.8597 64.5327 10.1094C64.8035 10.359 65.25 10.5516 65.8721 10.687L66.8877 10.9155C67.8441 11.1271 68.5275 11.4339 68.938 11.8359C69.3485 12.238 69.5537 12.769 69.5537 13.4292V13.4355C69.5537 14.0068 69.4141 14.4998 69.1348 14.9146C68.8555 15.3293 68.4619 15.6509 67.9541 15.8794C67.4463 16.1037 66.8517 16.2158 66.1704 16.2158ZM71.3438 16V9.15723H72.4482V16H71.3438ZM71.9023 7.83691C71.695 7.83691 71.5151 7.76286 71.3628 7.61475C71.2147 7.4624 71.1406 7.28255 71.1406 7.0752C71.1406 6.86361 71.2147 6.68376 71.3628 6.53564C71.5151 6.38753 71.695 6.31348 71.9023 6.31348C72.1139 6.31348 72.2938 6.38753 72.4419 6.53564C72.59 6.68376 72.6641 6.86361 72.6641 7.0752C72.6641 7.28255 72.59 7.4624 72.4419 7.61475C72.2938 7.76286 72.1139 7.83691 71.9023 7.83691ZM77.3486 18.4121C76.7985 18.4121 76.3182 18.3338 75.9077 18.1772C75.4972 18.0249 75.1693 17.807 74.9238 17.5234C74.6826 17.2441 74.5324 16.9183 74.4731 16.5459L74.4858 16.5396H75.6284L75.6348 16.5459C75.694 16.804 75.8717 17.0156 76.168 17.1807C76.4642 17.3499 76.8577 17.4346 77.3486 17.4346C77.9622 17.4346 78.4404 17.2949 78.7832 17.0156C79.1302 16.7406 79.3037 16.3512 79.3037 15.8477V14.4639H79.2021C79.0583 14.7135 78.8784 14.9272 78.6626 15.105C78.4468 15.2827 78.2035 15.4181 77.9326 15.5112C77.6618 15.6001 77.3698 15.6445 77.0566 15.6445C76.4684 15.6445 75.9585 15.5049 75.5269 15.2256C75.0994 14.9421 74.7694 14.5527 74.5366 14.0576C74.3039 13.5625 74.1875 12.9954 74.1875 12.3564V12.3438C74.1875 11.7048 74.3039 11.1377 74.5366 10.6426C74.7736 10.1432 75.1079 9.75179 75.5396 9.46826C75.9712 9.1805 76.4854 9.03662 77.082 9.03662C77.4036 9.03662 77.6999 9.0874 77.9707 9.18896C78.2415 9.29053 78.4806 9.43441 78.688 9.62061C78.8996 9.8068 79.0752 10.029 79.2148 10.2871H79.291V9.15723H80.3955V15.9048C80.3955 16.4126 80.2707 16.8548 80.021 17.2314C79.7756 17.6081 79.4243 17.8979 78.9673 18.1011C78.5103 18.3084 77.9707 18.4121 77.3486 18.4121ZM77.2979 14.667C77.721 14.667 78.0828 14.5697 78.3833 14.375C78.688 14.1761 78.9207 13.9032 79.0815 13.5562C79.2466 13.2091 79.3291 12.8092 79.3291 12.3564V12.3438C79.3291 11.891 79.2466 11.4889 79.0815 11.1377C78.9207 10.7865 78.688 10.5114 78.3833 10.3125C78.0828 10.1136 77.721 10.0142 77.2979 10.0142C76.8747 10.0142 76.515 10.1136 76.2188 10.3125C75.9268 10.5114 75.7025 10.7865 75.5459 11.1377C75.3936 11.4889 75.3174 11.891 75.3174 12.3438V12.3564C75.3174 12.8092 75.3936 13.2091 75.5459 13.5562C75.7025 13.9032 75.9268 14.1761 76.2188 14.375C76.515 14.5697 76.8747 14.667 77.2979 14.667ZM82.4521 16V9.15723H83.5566V10.1855H83.6582C83.8317 9.82161 84.0814 9.5402 84.4072 9.34131C84.7331 9.13818 85.1478 9.03662 85.6514 9.03662C86.4215 9.03662 87.0119 9.25667 87.4224 9.69678C87.8371 10.1326 88.0444 10.7568 88.0444 11.5693V16H86.9399V11.8359C86.9399 11.2181 86.8088 10.7611 86.5464 10.4648C86.2882 10.1644 85.8862 10.0142 85.3403 10.0142C84.9764 10.0142 84.6611 10.0924 84.3945 10.249C84.1279 10.4056 83.9206 10.6278 83.7725 10.9155C83.6286 11.2033 83.5566 11.5482 83.5566 11.9502V16H82.4521Z" fill="#06090F"></path></svg>